<mxfile host="app.diagrams.net" modified="2024-06-03T05:45:28.922Z" agent="Mozilla/5.0 (Macintosh; Intel Mac OS X 10.15; rv:126.0) Gecko/20100101 Firefox/126.0" version="24.4.13" etag="s1i4t-nzb8rf9pJYme9V" type="github">
  <diagram name="Page-1" id="tNwZLG_hteGzyFpjy-oB">
    <mxGraphModel>
      <root>
        <mxCell id="0" />
        <mxCell id="1" parent="0" />
      </root>
    </mxGraphModel>
  </diagram>
</mxfile>
